<mxfile host="app.diagrams.net" agent="Mozilla/5.0 (Windows NT 10.0; Win64; x64; rv:143.0) Gecko/20100101 Firefox/143.0" version="28.2.4">
  <diagram name="Page-1" id="Bz1XG947D7B0dISqpCuH">
    <mxGraphModel dx="499" dy="556" grid="1" gridSize="10" guides="1" tooltips="1" connect="1" arrows="1" fold="1" page="1" pageScale="1" pageWidth="850" pageHeight="1100" math="0" shadow="0">
      <root>
        <mxCell id="0" />
        <mxCell id="1" parent="0" />
        <mxCell id="GXqeeMQRsLGenmGYMUX3-15" style="rounded=0;orthogonalLoop=1;jettySize=auto;html=1;" edge="1" parent="1" target="GXqeeMQRsLGenmGYMUX3-8">
          <mxGeometry relative="1" as="geometry">
            <mxPoint x="400" y="350" as="sourcePoint" />
          </mxGeometry>
        </mxCell>
        <mxCell id="GXqeeMQRsLGenmGYMUX3-16" style="edgeStyle=orthogonalEdgeStyle;rounded=0;orthogonalLoop=1;jettySize=auto;html=1;entryX=0.5;entryY=1;entryDx=0;entryDy=0;" edge="1" parent="1" target="GXqeeMQRsLGenmGYMUX3-10">
          <mxGeometry relative="1" as="geometry">
            <mxPoint x="425" y="320" as="sourcePoint" />
          </mxGeometry>
        </mxCell>
        <mxCell id="GXqeeMQRsLGenmGYMUX3-17" style="edgeStyle=orthogonalEdgeStyle;rounded=0;orthogonalLoop=1;jettySize=auto;html=1;entryX=0.5;entryY=0;entryDx=0;entryDy=0;" edge="1" parent="1" target="GXqeeMQRsLGenmGYMUX3-13">
          <mxGeometry relative="1" as="geometry">
            <mxPoint x="425" y="410" as="sourcePoint" />
            <Array as="points" />
          </mxGeometry>
        </mxCell>
        <mxCell id="GXqeeMQRsLGenmGYMUX3-18" style="rounded=0;orthogonalLoop=1;jettySize=auto;html=1;" edge="1" parent="1" target="GXqeeMQRsLGenmGYMUX3-12">
          <mxGeometry relative="1" as="geometry">
            <mxPoint x="400" y="370" as="sourcePoint" />
          </mxGeometry>
        </mxCell>
        <mxCell id="GXqeeMQRsLGenmGYMUX3-19" style="rounded=0;orthogonalLoop=1;jettySize=auto;html=1;entryX=0;entryY=0.5;entryDx=0;entryDy=0;" edge="1" parent="1" target="GXqeeMQRsLGenmGYMUX3-11">
          <mxGeometry relative="1" as="geometry">
            <mxPoint x="450" y="350" as="sourcePoint" />
          </mxGeometry>
        </mxCell>
        <mxCell id="GXqeeMQRsLGenmGYMUX3-20" style="rounded=0;orthogonalLoop=1;jettySize=auto;html=1;entryX=0;entryY=0.5;entryDx=0;entryDy=0;" edge="1" parent="1" target="GXqeeMQRsLGenmGYMUX3-14">
          <mxGeometry relative="1" as="geometry">
            <mxPoint x="450" y="370" as="sourcePoint" />
          </mxGeometry>
        </mxCell>
        <mxCell id="GXqeeMQRsLGenmGYMUX3-4" value="Vizitator" style="shape=umlActor;verticalLabelPosition=bottom;verticalAlign=top;html=1;outlineConnect=0;" vertex="1" parent="1">
          <mxGeometry x="410" y="330" width="30" height="60" as="geometry" />
        </mxCell>
        <mxCell id="GXqeeMQRsLGenmGYMUX3-8" value="Vizualizează lista mașinilor" style="ellipse;whiteSpace=wrap;html=1;" vertex="1" parent="1">
          <mxGeometry x="180" y="250" width="120" height="80" as="geometry" />
        </mxCell>
        <mxCell id="GXqeeMQRsLGenmGYMUX3-10" value="Filtrează după brand" style="ellipse;whiteSpace=wrap;html=1;" vertex="1" parent="1">
          <mxGeometry x="365" y="200" width="120" height="80" as="geometry" />
        </mxCell>
        <mxCell id="GXqeeMQRsLGenmGYMUX3-11" value="Filtrează după model" style="ellipse;whiteSpace=wrap;html=1;" vertex="1" parent="1">
          <mxGeometry x="550" y="250" width="120" height="80" as="geometry" />
        </mxCell>
        <mxCell id="GXqeeMQRsLGenmGYMUX3-12" value="Filtrează după tip alimentare" style="ellipse;whiteSpace=wrap;html=1;" vertex="1" parent="1">
          <mxGeometry x="180" y="380" width="120" height="80" as="geometry" />
        </mxCell>
        <mxCell id="GXqeeMQRsLGenmGYMUX3-13" value="Filtrează după an" style="ellipse;whiteSpace=wrap;html=1;" vertex="1" parent="1">
          <mxGeometry x="365" y="470" width="120" height="80" as="geometry" />
        </mxCell>
        <mxCell id="GXqeeMQRsLGenmGYMUX3-14" value="Vizualiza detalii despre mașină" style="ellipse;whiteSpace=wrap;html=1;" vertex="1" parent="1">
          <mxGeometry x="550" y="380" width="120" height="80" as="geometry" />
        </mxCell>
      </root>
    </mxGraphModel>
  </diagram>
</mxfile>
